<?xml version="1.0" encoding="UTF-8"?>
<svg width="512pt" height="512pt" version="1.1" viewBox="0 0 512 512" xmlns="http://www.w3.org/2000/svg">
 <path d="m256 24c-128.05 0-232 103.95-232 232s103.95 232 232 232 232-103.95 232-232-103.95-232-232-232zm0 16c119.21 0 216 96.785 216 216s-96.785 216-216 216-216-96.785-216-216 96.785-216 216-216zm28.574 144s-0.078125-8-8.7852-8c-12.832 0-25.137 5.1055-34.207 14.16-9.0703 9.0703-14.16 21.375-14.16 34.207v199.63c0 4.4141 3.5859 8 8 8h1.8711c26.113 0 47.281-21.168 47.281-47.281v-200.72zm-16 8.8164v191.9c0 15.184-10.816 27.84-25.152 30.672v-191.02c0-8.5742 3.4062-16.816 9.4727-22.879 4.3516-4.3516 9.793-7.3281 15.68-8.6719zm-12.574-112.82c-22.078 0-40 17.922-40 40s17.922 40 40 40 40-17.922 40-40-17.922-40-40-40zm0 16c13.246 0 24 10.754 24 24s-10.754 24-24 24-24-10.754-24-24 10.754-24 24-24z" fill="#9b9b9b" fill-rule="evenodd"/>
</svg>
