<svg id="logo_1_" xmlns="http://www.w3.org/2000/svg" width="945.891" height="203.67" viewBox="0 0 945.891 203.67">
  <g id="Group_438" data-name="Group 438">
    <path id="Path_689" data-name="Path 689" d="M107.663,181.149H24.173A24.2,24.2,0,0,1,0,156.976V24.173A24.2,24.2,0,0,1,24.173,0H155.345a24.2,24.2,0,0,1,24.173,24.173V96.42a5.3,5.3,0,1,1-10.6,0V24.173a13.6,13.6,0,0,0-13.579-13.579H24.173A13.6,13.6,0,0,0,10.594,24.173v132.8a13.6,13.6,0,0,0,13.579,13.579h83.49a5.3,5.3,0,1,1,0,10.594Z" fill="#fff"/>
    <path id="Path_690" data-name="Path 690" d="M179.03,232.487a20.986,20.986,0,0,1-2.261-.122c-8.685-.914-14.635-7-19.414-11.887-.575-.589-1.144-1.171-1.706-1.733L112,175.105c-7.25-7.25-10.77-14.763-10.452-22.331a23.058,23.058,0,0,1,7.338-15.731l9.937-9.937c4.427-4.427,9.382-6.647,14.709-6.573,8.231.1,14,5.706,14.872,6.607l13.883,13.883c4.454,4.454,13.782,10.228,20.5,3.621,6.938-6.83,13.931-13.87,20.693-20.68q5.666-5.706,11.352-11.4a5.3,5.3,0,0,1,7.493,7.493Q216.65,125.735,211,131.431c-6.783,6.83-13.8,13.89-20.781,20.761-10.993,10.817-26.068,5.679-35.423-3.676L140.784,134.5c-.007,0-3.357-3.364-7.446-3.378h-.027c-2.369,0-4.657,1.137-7,3.473l-10.377,10.35h0a12.787,12.787,0,0,0-3.8,8.394c-.135,4.447,2.342,9.253,7.365,14.269l43.647,43.647c.6.6,1.191,1.2,1.794,1.821,4.143,4.237,8.055,8.238,12.949,8.759,5.564.589,10.736-3.3,14.1-6.654l80.553-80.566c3.764-3.764,7.02-7.006,7.229-11.176.244-4.853-3.324-9.49-6.363-12.53L260.733,98.242a5.3,5.3,0,0,1,7.493-7.493L280.9,103.42c6.62,6.62,9.8,13.538,9.45,20.551-.413,8.245-5.909,13.735-10.323,18.141l-80.559,80.559C193.008,229.13,185.989,232.487,179.03,232.487Z" transform="translate(-32.803 -28.818)" fill="#fff"/>
    <circle id="Ellipse_526" data-name="Ellipse 526" cx="5.192" cy="5.192" r="5.192" transform="translate(198.444 68.172)" fill="#fff"/>
  </g>
  <g id="Group_439" data-name="Group 439" transform="translate(299.805 36.276)">
    <path id="Path_691" data-name="Path 691" d="M481.119,53.59a35.492,35.492,0,0,1,7.257.7,32.659,32.659,0,0,1,6,1.814l-5.158,16.32a15.06,15.06,0,0,0-3-1.117,16.092,16.092,0,0,0-3.973-.42,8.289,8.289,0,0,0-6.417,2.579,10.2,10.2,0,0,0-2.369,7.182v5.578h17.018v15.623H473.456v52.725h-18.27V101.847H442.9V86.224h12.272V79.529a30.351,30.351,0,0,1,1.882-11.088,21.837,21.837,0,0,1,5.368-8.089,23.9,23.9,0,0,1,8.231-5.023A30.227,30.227,0,0,1,481.119,53.59Z" transform="translate(-442.9 -53.59)" fill="#fff"/>
    <path id="Path_692" data-name="Path 692" d="M555.609,98.52a37.987,37.987,0,0,1,14.574,2.721,33.817,33.817,0,0,1,18.974,19.042,40.787,40.787,0,0,1,0,29.3,33.817,33.817,0,0,1-18.974,19.042,40.388,40.388,0,0,1-29.148,0,33.816,33.816,0,0,1-18.974-19.042,40.787,40.787,0,0,1,0-29.3,33.816,33.816,0,0,1,18.974-19.042A37.86,37.86,0,0,1,555.609,98.52Zm0,55.927a17.83,17.83,0,0,0,6.762-1.327,17.1,17.1,0,0,0,5.788-3.838,18.118,18.118,0,0,0,3.974-6.14,23.9,23.9,0,0,0,0-16.463,18.251,18.251,0,0,0-3.974-6.14,17.267,17.267,0,0,0-5.788-3.838,17.961,17.961,0,0,0-6.762-1.327,17.68,17.68,0,0,0-6.837,1.327,17.4,17.4,0,0,0-5.72,3.838,18.251,18.251,0,0,0-3.974,6.14,23.9,23.9,0,0,0,0,16.463,18.251,18.251,0,0,0,3.974,6.14,17.461,17.461,0,0,0,12.557,5.165Z" transform="translate(-467.597 -68.106)" fill="#fff"/>
    <path id="Path_693" data-name="Path 693" d="M641.74,100.744H658.9v9.484h1.117a17.609,17.609,0,0,1,3.351-4.6,24.83,24.83,0,0,1,4.671-3.649,26.171,26.171,0,0,1,5.578-2.511,19.45,19.45,0,0,1,5.93-.954,21.593,21.593,0,0,1,6.207.778,15.789,15.789,0,0,1,4.393,2.01l-4.881,16.32a17.887,17.887,0,0,0-3.7-1.327,21.486,21.486,0,0,0-4.955-.487,15.6,15.6,0,0,0-6.837,1.476,15.091,15.091,0,0,0-5.233,4.136,19.582,19.582,0,0,0-3.351,6.241,24.523,24.523,0,0,0-1.185,7.778v33.656H641.74Z" transform="translate(-507.143 -68.103)" fill="#fff"/>
    <path id="Path_694" data-name="Path 694" d="M725.61,100.747h17.16v8.928h1.117a23.912,23.912,0,0,1,8.719-8.089,24.664,24.664,0,0,1,12.2-3.066,22.692,22.692,0,0,1,13.112,3.628,20.341,20.341,0,0,1,7.534,8.928,28.032,28.032,0,0,1,9.064-8.854,26.143,26.143,0,0,1,14.229-3.7,26.9,26.9,0,0,1,10.878,2.024,20.245,20.245,0,0,1,7.6,5.652,24.824,24.824,0,0,1,4.535,8.719,38.34,38.34,0,0,1,1.537,11.088v43.1H815.03V129.353q0-13.951-11.44-13.951a12.649,12.649,0,0,0-6.417,1.6,14.247,14.247,0,0,0-4.671,4.325,21.4,21.4,0,0,0-2.931,6.485,30.151,30.151,0,0,0-1.049,8.089v33.2h-18.27V129.347q0-13.951-11.995-13.951a11.615,11.615,0,0,0-6.14,1.6,14.075,14.075,0,0,0-4.461,4.325,21.091,21.091,0,0,0-2.789,6.485,32.228,32.228,0,0,0-.975,8.089v33.2h-18.27V100.747Z" transform="translate(-534.24 -68.106)" fill="#fff"/>
    <path id="Path_695" data-name="Path 695" d="M930.844,171.326a39.084,39.084,0,0,1-11.927-1.672,32.822,32.822,0,0,1-9.064-4.393,28.756,28.756,0,0,1-6.485-6.275,30.37,30.37,0,0,1-4.048-7.182l16.32-6.972a17.592,17.592,0,0,0,6.349,7.879,15.922,15.922,0,0,0,8.854,2.579,15.011,15.011,0,0,0,7.954-1.814c1.956-1.2,2.931-2.654,2.931-4.325a5.336,5.336,0,0,0-2.444-4.535q-2.437-1.746-8.441-3.141l-9.626-2.092a33.527,33.527,0,0,1-6.627-2.234,25.775,25.775,0,0,1-6.207-3.906,19.632,19.632,0,0,1-4.6-5.72,16.12,16.12,0,0,1-1.814-7.812,18.12,18.12,0,0,1,2.159-8.928,20.2,20.2,0,0,1,5.93-6.627,28.348,28.348,0,0,1,8.854-4.183,39.518,39.518,0,0,1,10.952-1.462,38.472,38.472,0,0,1,17.437,3.838,23.638,23.638,0,0,1,11.3,12.2l-15.759,6.417a12.062,12.062,0,0,0-5.72-5.855,17.3,17.3,0,0,0-7.534-1.814,14.018,14.018,0,0,0-6.837,1.6q-2.934,1.6-2.931,4.116a4.2,4.2,0,0,0,2.444,3.764,28.163,28.163,0,0,0,6.627,2.511l10.458,2.511q10.458,2.508,15.556,8.021a18.6,18.6,0,0,1,5.09,13.044,18.264,18.264,0,0,1-2.092,8.509,22.718,22.718,0,0,1-5.93,7.182,29.134,29.134,0,0,1-9.206,4.955A37.4,37.4,0,0,1,930.844,171.326Z" transform="translate(-590.363 -68.103)" fill="#fff"/>
    <path id="Path_696" data-name="Path 696" d="M1015.92,191.663a11.9,11.9,0,0,1-8.576-3.432,11.1,11.1,0,0,1-3.554-8.285,10.877,10.877,0,0,1,3.554-8.211,12.044,12.044,0,0,1,8.576-3.364,11.818,11.818,0,0,1,8.509,3.364,11,11,0,0,1,3.486,8.211,11.232,11.232,0,0,1-3.486,8.285A11.663,11.663,0,0,1,1015.92,191.663Z" transform="translate(-624.116 -90.674)" fill="#fff"/>
    <path id="Path_697" data-name="Path 697" d="M1101.12,161.848H1100a30.76,30.76,0,0,1-7.744,6.695q-4.539,2.792-11.65,2.789a28.236,28.236,0,0,1-9.971-1.746,25.975,25.975,0,0,1-8.157-4.813,21.511,21.511,0,0,1-5.442-7.392,22.81,22.81,0,0,1-1.95-9.484,21.4,21.4,0,0,1,2.092-9.558,21.782,21.782,0,0,1,5.862-7.324,26.468,26.468,0,0,1,8.854-4.671,36.7,36.7,0,0,1,11.088-1.6,48.082,48.082,0,0,1,11.02,1.049,54.428,54.428,0,0,1,7.114,2.159v-2.092a11.152,11.152,0,0,0-4.326-9,16.363,16.363,0,0,0-10.743-3.554q-9.484,0-16.043,7.954l-13.254-9.064q10.875-13.667,29.71-13.667,15.9,0,24.267,7.46T1119.1,128.1v41.007h-17.992v-7.257Zm0-20.5a38.173,38.173,0,0,0-6.627-2.444,29.141,29.141,0,0,0-7.46-.907q-6.559,0-10.113,2.857a8.723,8.723,0,0,0-3.554,7.047,7.884,7.884,0,0,0,3.418,6.695,12.953,12.953,0,0,0,7.879,2.511,16.831,16.831,0,0,0,11.927-4.813,15.579,15.579,0,0,0,4.529-10.946Z" transform="translate(-640.69 -68.11)" fill="#fff"/>
    <path id="Path_698" data-name="Path 698" d="M1170.28,100.747h17.16v8.231h1.117a20.7,20.7,0,0,1,7.812-7.392,25.83,25.83,0,0,1,13.112-3.066,29.569,29.569,0,0,1,12.482,2.721,33.329,33.329,0,0,1,10.458,7.534,35.854,35.854,0,0,1,7.182,11.508,41.758,41.758,0,0,1,0,29.3,35.854,35.854,0,0,1-7.182,11.508,33.484,33.484,0,0,1-10.458,7.534,29.592,29.592,0,0,1-12.482,2.721,25.83,25.83,0,0,1-13.112-3.066,20.706,20.706,0,0,1-7.812-7.392h-1.117l1.117,9.761v28.593h-18.27V100.747Zm35.43,53.7a17.5,17.5,0,0,0,6.9-1.394,18.127,18.127,0,0,0,5.788-3.906,19.13,19.13,0,0,0,4.048-6.14,22.06,22.06,0,0,0,0-16.178,19.054,19.054,0,0,0-4.048-6.14,18.311,18.311,0,0,0-5.788-3.906,17.5,17.5,0,0,0-6.9-1.394,18.193,18.193,0,0,0-6.9,1.327,17.2,17.2,0,0,0-5.788,3.838,19.092,19.092,0,0,0-4.048,6.14,22.815,22.815,0,0,0,0,16.463,19.054,19.054,0,0,0,4.048,6.14,17.3,17.3,0,0,0,5.788,3.838A18.4,18.4,0,0,0,1205.71,154.447Z" transform="translate(-677.907 -68.106)" fill="#fff"/>
    <path id="Path_699" data-name="Path 699" d="M1291.03,100.747h17.16v8.231h1.117a20.7,20.7,0,0,1,7.812-7.392,25.83,25.83,0,0,1,13.112-3.066,29.569,29.569,0,0,1,12.482,2.721,33.329,33.329,0,0,1,10.458,7.534,35.854,35.854,0,0,1,7.182,11.508,41.758,41.758,0,0,1,0,29.3,35.854,35.854,0,0,1-7.182,11.508,33.485,33.485,0,0,1-10.458,7.534,29.591,29.591,0,0,1-12.482,2.721,25.83,25.83,0,0,1-13.112-3.066,20.706,20.706,0,0,1-7.812-7.392h-1.117l1.117,9.761v28.593h-18.27V100.747Zm35.43,53.7a17.5,17.5,0,0,0,6.9-1.394,18.129,18.129,0,0,0,5.788-3.906,19.132,19.132,0,0,0,4.048-6.14,22.06,22.06,0,0,0,0-16.178,19.058,19.058,0,0,0-4.048-6.14,18.312,18.312,0,0,0-5.788-3.906,17.5,17.5,0,0,0-6.9-1.394,18.194,18.194,0,0,0-6.9,1.327,17.2,17.2,0,0,0-5.788,3.838,19.092,19.092,0,0,0-4.048,6.14,22.815,22.815,0,0,0,0,16.463,19.056,19.056,0,0,0,4.048,6.14,17.3,17.3,0,0,0,5.788,3.838A18.421,18.421,0,0,0,1326.46,154.447Z" transform="translate(-716.92 -68.106)" fill="#fff"/>
  </g>
</svg>
