<?xml version="1.0" encoding="UTF-8"?>
<svg width="512pt" height="512pt" version="1.1" viewBox="0 0 512 512" xmlns="http://www.w3.org/2000/svg">
 <path d="m122.66 195.46c0-3.8711 3.1328-7 7-7h252.66c3.8672 0 7.0078 3.1289 7.0078 7 0 3.8672-3.1406 7.0078-7.0078 7.0078h-252.66c-3.8672 0-7-3.1406-7-7.0078zm0-54.535c0-3.8672 3.1328-7 7-7h252.66c3.8672 0 7.0078 3.1328 7.0078 7 0 3.8789-3.1406 7.0078-7.0078 7.0078l-252.66-0.003906c-3.8672 0-7-3.125-7-7.0039zm0-54.527c0-3.8672 3.1328-7.0039 7-7.0039h175.49c3.8672 0 7.0078 3.1406 7.0078 7.0039 0 3.8672-3.1406 7.0078-7.0078 7.0078h-175.49c-3.8672 0-7-3.1406-7-7.0078zm228.47 306.3c-17.457 0-32.051-12.488-35.312-29h70.633c-3.2656 16.512-17.867 29-35.32 29zm30.793-43.004h-61.59l30.797-52.641zm-221.07 43.004c-17.453 0-32.051-12.488-35.32-29h70.637c-3.2695 16.512-17.852 29-35.316 29zm0-95.645 30.797 52.641h-61.59zm239.32 56.105-43.004-73.523c-1.0781-1.8398-2.9336-3.0742-5.0117-3.3828v-0.003907c-32.465-4.8203-66.039-16.168-92.531-32.246-2.2422-1.3594-5.0508-1.3594-7.2852 0-26.367 16.047-60.152 27.438-92.523 32.246v0.003907c-2.082 0.30859-3.9297 1.5391-5.0156 3.3828l-43.004 73.531c-0.60156 1.0391-0.95703 2.2422-0.95703 3.5312 0 27.582 22.43 50.012 50.004 50.012s50.004-22.43 50.004-50.012c0-1.2852-0.35547-2.4922-0.95703-3.5312l0.003906-0.003906-37.887-64.766c26.902-5.0156 53.906-14.129 76.973-26.379l0.003906 167.87h-36.273c-3.8672 0-7 3.1406-7 7.0078 0 3.8711 3.1328 7 7 7h86.551c3.8672 0 7.0078-3.1289 7.0078-7 0-3.8672-3.1406-7.0078-7.0078-7.0078h-36.27v-167.87c23.062 12.246 50.055 21.359 76.965 26.379l-37.887 64.766 0.011719 0.003906c-0.62109 1.0391-0.97266 2.2422-0.97266 3.5312 0 27.582 22.441 50.012 50.016 50.012 27.582 0 50.012-22.43 50.012-50.012-0.003907-2.0977-0.96484-3.4961-0.96484-3.5391zm16.508 119.95c9.543 0 17.305-7.7734 17.305-17.312l0.003906-339.76h-45.852c-17.27 0-31.324-14.055-31.324-31.316v-45.855h-261.52c-9.543 0-17.305 7.7617-17.305 17.305v399.62c0 9.5391 7.7617 17.312 17.305 17.312zm-45.855-424.34 53.262 53.27-35.949-0.003906c-9.543 0-17.312-7.7656-17.312-17.312zm75.125 55.316-77.172-77.18c-1.3164-1.3047-3.0977-2.043-4.957-2.043h-268.53c-17.266 0-31.312 14.047-31.312 31.312v399.62c0 17.266 14.047 31.316 31.312 31.316h321.39c17.27 0 31.316-14.055 31.316-31.316l0.003907-346.76c0-1.8594-0.73828-3.6406-2.0508-4.957z" fill="#999" fill-rule="evenodd"/>
</svg>
