<?xml version="1.0" encoding="UTF-8"?>
<svg width="512pt" height="512pt" version="1.1" viewBox="0 0 512 512" xmlns="http://www.w3.org/2000/svg">
 <g fill="#999">
  <path d="m215.36 417.49h-26.23c-7.2227 0-13.094-5.875-13.094-13.098v-19.961c-8.1719-2.5-16.105-5.793-23.672-9.8203l-14.125 14.125c-5.1055 5.1016-13.418 5.1055-18.523 0l-37.094-37.094c-5.1055-5.1055-5.1055-13.414 0-18.52l14.117-14.117c-4.0234-7.5625-7.3164-15.5-9.8203-23.68h-19.949c-7.2227 0-13.098-5.875-13.098-13.098v-52.461c0-7.2227 5.875-13.094 13.098-13.094h19.957c2.5-8.1719 5.793-16.109 9.8203-23.672l-14.121-14.121c-5.1055-5.1055-5.1055-13.414 0-18.523l37.094-37.094c2.4688-2.4688 5.7578-3.8281 9.2617-3.8281 3.5039 0 6.793 1.3594 9.2617 3.8281l14.125 14.125c7.5664-4.0273 15.5-7.3164 23.672-9.8203v-19.961c0-7.2227 5.875-13.098 13.094-13.098h26.23c2.875 0 5.2031 2.3281 5.2031 5.2031v88.961c0 2.875-2.3281 5.2031-5.2031 5.2031s-5.2031-2.3281-5.2031-5.2031v-83.758h-21.027c-1.457 0-2.6875 1.2305-2.6875 2.6914v23.871c0 2.3438-1.5664 4.4023-3.832 5.0195-9.9609 2.7227-19.578 6.7109-28.582 11.855-2.0391 1.1641-4.6016 0.82031-6.2578-0.83984l-16.891-16.891c-1.0312-1.0312-2.7734-1.0312-3.8047 0l-37.094 37.094c-1.0312 1.0312-1.0312 2.7734 0 3.8047l16.891 16.891c1.6602 1.6602 2.0039 4.2227 0.83984 6.2578-5.1406 9.0039-9.1289 18.621-11.855 28.582-0.61719 2.2617-2.6719 3.832-5.0195 3.832h-23.871c-1.457 0-2.6914 1.2305-2.6914 2.6875v52.461c0 1.457 1.2305 2.6914 2.6914 2.6914h23.863c2.3438 0 4.4023 1.5703 5.0195 3.832 2.7266 9.9727 6.7148 19.59 11.852 28.59 1.1641 2.0352 0.82031 4.6016-0.83984 6.2578l-16.883 16.883c-1.0312 1.0312-1.0312 2.7734 0 3.8047l37.094 37.094c1.0312 1.0312 2.7734 1.0312 3.8047 0l16.891-16.891c1.6602-1.6602 4.2227-2 6.2578-0.83984 9.0039 5.1406 18.621 9.1289 28.582 11.852 2.2617 0.62109 3.832 2.6719 3.832 5.0195v23.871c0 1.457 1.2305 2.6914 2.6875 2.6914h21.027v-83.758c0-2.875 2.3281-5.2031 5.2031-5.2031s5.2031 2.3281 5.2031 5.2031v88.961c0.003906 2.8711-2.3281 5.1992-5.2031 5.1992z"/>
  <path d="m215.36 349.79c-51.715 0-93.785-42.074-93.785-93.785 0-51.715 42.074-93.785 93.785-93.789 2.875 0 5.2031 2.3281 5.2031 5.2031s-2.3281 5.2031-5.2031 5.2031c-45.977 0-83.379 37.406-83.379 83.383s37.402 83.379 83.379 83.379c2.875 0 5.2031 2.3281 5.2031 5.2031 0.003906 2.875-2.3281 5.2031-5.2031 5.2031z"/>
  <path d="m218.73 328.61c-40.039 0-72.613-32.574-72.613-72.613s32.574-72.613 72.613-72.613c40.039 0 72.613 32.574 72.613 72.613s-32.574 72.613-72.613 72.613zm0-134.82c-34.301 0-62.207 27.906-62.207 62.207s27.906 62.207 62.207 62.207 62.207-27.906 62.207-62.207-27.906-62.207-62.207-62.207z"/>
  <path d="m249.6 289.23h-61.73c-2.875 0-5.2031-2.3281-5.2031-5.2031v-56.062c0-2.875 2.3281-5.2031 5.2031-5.2031h61.73c2.875 0 5.2031 2.3281 5.2031 5.2031v56.062c0 2.8711-2.332 5.2031-5.2031 5.2031zm-56.527-10.406h51.324v-45.656h-51.324z"/>
  <path d="m231.59 271.23h-25.715c-2.875 0-5.2031-2.3281-5.2031-5.2031v-20.047c0-2.875 2.3281-5.2031 5.2031-5.2031h25.715c2.875 0 5.2031 2.3281 5.2031 5.2031v20.047c0 2.875-2.3281 5.2031-5.2031 5.2031zm-20.512-10.406h15.309v-9.6406h-15.309z"/>
  <path d="m325.61 220.74h-52.953c-2.875 0-5.2031-2.3281-5.2031-5.2031s2.3281-5.2031 5.2031-5.2031h50.797l44.68-44.676c2.0312-2.0312 5.3281-2.0312 7.3555 0 2.0312 2.0312 2.0312 5.3281 0 7.3594l-46.199 46.199c-0.98047 0.97266-2.3008 1.5234-3.6797 1.5234z"/>
  <path d="m324.95 172.62h-109.59c-2.875 0-5.2031-2.3281-5.2031-5.2031s2.3281-5.2031 5.2031-5.2031h104.39v-88.043c0-2.875 2.3281-5.2031 5.2031-5.2031s5.2031 2.3281 5.2031 5.2031v93.25c0 2.8711-2.3281 5.1992-5.2031 5.1992z"/>
  <path d="m411.02 261.2h-124.88c-2.875 0-5.2031-2.3281-5.2031-5.2031s2.3281-5.2031 5.2031-5.2031h124.88c2.875 0 5.2031 2.3281 5.2031 5.2031s-2.3281 5.2031-5.2031 5.2031z"/>
  <path d="m324.95 443.04c-2.875 0-5.2031-2.3281-5.2031-5.2031v-88.047l-104.39-0.003906c-2.875 0-5.2031-2.3281-5.2031-5.2031s2.3281-5.2031 5.2031-5.2031h109.59c2.875 0 5.2031 2.3281 5.2031 5.2031v93.25c0 2.875-2.3281 5.207-5.2031 5.207z"/>
  <path d="m371.8 347.87c-1.332 0-2.6641-0.50781-3.6797-1.5234l-44.68-44.676h-50.797c-2.875 0-5.2031-2.3281-5.2031-5.2031s2.3281-5.2031 5.2031-5.2031h52.953c1.3789 0 2.7031 0.54688 3.6797 1.5234l46.199 46.199c2.0312 2.0312 2.0312 5.3242 0 7.3555-1.0117 1.0195-2.3438 1.5273-3.6758 1.5273z"/>
  <path d="m324.95 79.371c-14.422 0-26.156-11.734-26.156-26.156s11.734-26.156 26.156-26.156 26.156 11.734 26.156 26.156-11.734 26.156-26.156 26.156zm0-41.906c-8.6836 0-15.75 7.0664-15.75 15.75s7.0664 15.75 15.75 15.75c8.6836 0 15.75-7.0664 15.75-15.75 0-8.6875-7.0625-15.75-15.75-15.75z"/>
  <path d="m386.62 180.68c-14.422 0-26.156-11.734-26.156-26.156s11.734-26.156 26.156-26.156 26.156 11.734 26.156 26.156-11.734 26.156-26.156 26.156zm0-41.906c-8.6836 0-15.75 7.0664-15.75 15.75 0 8.6836 7.0664 15.75 15.75 15.75s15.75-7.0664 15.75-15.75c0-8.6836-7.0664-15.75-15.75-15.75z"/>
  <path d="m431.98 282.16c-14.422 0-26.156-11.734-26.156-26.156s11.734-26.156 26.156-26.156c14.422 0 26.156 11.734 26.156 26.156s-11.734 26.156-26.156 26.156zm0-41.906c-8.6836 0-15.75 7.0664-15.75 15.75s7.0664 15.75 15.75 15.75c8.6836 0 15.75-7.0664 15.75-15.75s-7.0664-15.75-15.75-15.75z"/>
  <path d="m386.62 383.64c-14.422 0-26.156-11.734-26.156-26.156s11.734-26.156 26.156-26.156 26.156 11.734 26.156 26.156-11.734 26.156-26.156 26.156zm0-41.906c-8.6836 0-15.75 7.0664-15.75 15.75 0 8.6836 7.0664 15.75 15.75 15.75s15.75-7.0664 15.75-15.75c0-8.6875-7.0664-15.75-15.75-15.75z"/>
  <path d="m324.95 484.94c-14.422 0-26.156-11.734-26.156-26.156s11.734-26.156 26.156-26.156 26.156 11.734 26.156 26.156c0 14.426-11.734 26.156-26.156 26.156zm0-41.902c-8.6836 0-15.75 7.0664-15.75 15.75 0 8.6836 7.0664 15.75 15.75 15.75 8.6836 0 15.75-7.0664 15.75-15.75 0-8.6875-7.0625-15.75-15.75-15.75z"/>
 </g>
</svg>
