<?xml version="1.0" encoding="UTF-8"?>
<svg width="512pt" height="512pt" version="1.1" viewBox="0 0 512 512" xmlns="http://www.w3.org/2000/svg">
 <g fill="#999" fill-rule="evenodd">
  <path d="m253.02 402.88c-0.10156 0-0.21875 0.019532-0.33984 0.019532h-145.18v16.102h-0.019531c0 1.1016-0.33984 2.1992-1.0391 3.1602-1.7383 2.3203-5.0391 2.8008-7.3594 1.0391l-57.379-43.02c-0.42188-0.30078-0.80078-0.67969-1.1406-1.1211-1.7383-2.3203-1.2617-5.6211 1.0391-7.3594l57.098-42.82c0.94141-0.83984 2.1797-1.3594 3.5195-1.3594 2.9219 0 5.2812 2.3594 5.2812 5.2812v16.102h34.68c-9.3008-11.379-16.941-24.199-22.52-38.059-6.8398-16.961-10.602-35.48-10.602-54.859 0-0.66016 0.019531 0.058594 0.039062-1.6797 0-0.46094 0.019532-0.87891 0.019532-1.2617 0-0.12109-0.019532-0.21875-0.019532-0.33984v-145.2h-16.102v-0.019531c-1.1016 0-2.1992-0.33984-3.1602-1.0391-2.3203-1.7383-2.8008-5.0391-1.0391-7.3594l43.02-57.379c0.30078-0.42188 0.67969-0.80078 1.1211-1.1406 2.3203-1.7383 5.6211-1.2617 7.3594 1.0391l42.82 57.098c0.83984 0.94141 1.3594 2.1797 1.3594 3.5195 0 2.9219-2.3594 5.2812-5.2812 5.2812h-16.121v34.699c11.398-9.3203 24.199-16.961 38.078-22.539 16.961-6.8398 35.48-10.602 54.859-10.602 0.64062 0-0.058594 0.019532 1.6797 0.039063 0.46094 0 0.87891 0.019531 1.2617 0.019531 0.12109 0 0.21875-0.019531 0.33984-0.019531h145.22v-16.102h0.019531c0-1.1016 0.33984-2.1992 1.0391-3.1602 1.7383-2.3203 5.0391-2.8008 7.3594-1.0391l57.379 43.02c0.42188 0.30078 0.80078 0.67969 1.1406 1.1211 1.7383 2.3203 1.2617 5.6211-1.0391 7.3594l-57.098 42.82c-0.94141 0.83984-2.1797 1.3594-3.5195 1.3594-2.9219 0-5.2812-2.3594-5.2812-5.2812v-16.102h-34.68c9.3008 11.379 16.941 24.199 22.52 38.059 6.8398 16.961 10.602 35.48 10.602 54.859 0 0.66016-0.019531-0.058593-0.039062 1.6797v146.8h16.102v0.019531c1.1016 0 2.1992 0.33984 3.1602 1.0391 2.3203 1.7383 2.8008 5.0391 1.0391 7.3594l-43.02 57.379c-0.30078 0.42188-0.67969 0.80078-1.1211 1.1406-2.3203 1.7383-5.6211 1.2617-7.3594-1.0391l-42.82-57.098c-0.83984-0.94141-1.3594-2.1797-1.3594-3.5195 0-2.9219 2.3594-5.2812 5.2812-5.2812h16.102v-34.68c-11.379 9.3008-24.199 16.941-38.059 22.52-16.961 6.8398-35.48 10.602-54.859 10.602-0.51953 0-1.5195-0.019531-2.9805-0.058594zm95.883-146.88v-0.019531c0-25.641-10.398-48.859-27.219-65.66-16.82-16.82-40.039-27.219-65.699-27.219s-48.879 10.398-65.699 27.219c-16.82 16.82-27.219 40.039-27.219 65.699 0 25.66 10.398 48.879 27.219 65.699 16.82 16.82 40.039 27.219 65.699 27.219s48.879-10.398 65.699-27.219c16.801-16.82 27.18-40 27.219-65.617zm6.9414-92.902h-54.281c10.281 5.0391 19.578 11.738 27.578 19.738 18.719 18.719 30.301 44.578 30.301 73.16v153.76c0 2.9219-2.3594 5.2812-5.2812 5.2812h-10.859l32.559 43.441 32.559-43.441h-10.859c-2.9219 0-5.2812-2.3594-5.2812-5.2812v-154.63c-0.078125-17.801-3.5586-34.781-9.8203-50.32-6.3008-15.641-15.418-29.82-26.719-41.961zm-192.78-6.9219v54.297c5.0391-10.281 11.762-19.621 19.762-27.621 18.719-18.719 44.559-30.301 73.117-30.301h153.8c2.9219 0 5.2812 2.3594 5.2812 5.2812v10.859l43.441-32.559-43.441-32.559v10.859c0 2.9219-2.3594 5.2812-5.2812 5.2812h-150.5c-0.19922 0-0.37891-0.019532-0.55859-0.039063-0.39844-0.019531-0.78125-0.019531-1.1211-0.019531-0.64062 0 0.14062 0.019531-1.6016 0.019531-18.02 0-35.219 3.4805-50.941 9.8203-15.641 6.3008-29.84 15.418-41.98 26.719zm-6.9219 192.74h54.281c-10.281-5.0391-19.578-11.738-27.578-19.738-18.719-18.719-30.301-44.578-30.301-73.16 0-0.66016 0.019531-1.3203 0.019531-1.9805v-151.8c0-2.8984 2.3594-5.2617 5.2617-5.2617v-0.019531h10.859l-32.559-43.441-32.559 43.441h10.859c2.9219 0 5.2812 2.3594 5.2812 5.2812v150.48c0 0.19922-0.019532 0.37891-0.039063 0.57812-0.019531 0.39844-0.019531 0.78125-0.019531 1.1211 0 0.66016 0.019531-0.14062 0.019531 1.6016 0 18.039 3.4805 35.219 9.8203 50.941 6.3008 15.641 15.418 29.82 26.719 41.961zm99.758 10.559h-153.7c-2.9219 0-5.2812-2.3594-5.2812-5.2812v-10.859l-43.441 32.559 43.441 32.559v-10.859c0-2.9219 2.3594-5.2812 5.2812-5.2812h150.46c0.17969 0 0.35938 0.019531 0.53906 0.019531 0.57812 0 1.5195 0.019531 2.7617 0.019531 18.039 0 35.219-3.4805 50.941-9.8203 15.641-6.3008 29.82-15.418 41.961-26.719v-54.281c-5.0391 10.281-11.738 19.578-19.738 27.578-18.719 18.719-44.578 30.301-73.16 30.301h-0.078125z"/>
  <path d="m229.56 271.1c2.3398 1.7188 2.8594 5.0195 1.1406 7.3594-1.7188 2.3398-5.0195 2.8594-7.3594 1.1406l-26.34-19.34c-2.3398-1.7188-2.8594-5.0195-1.1406-7.3594 0.33984-0.48047 0.76172-0.87891 1.2188-1.1992l26.238-19.281c2.3398-1.7188 5.6406-1.2188 7.3594 1.1406 1.7188 2.3398 1.2188 5.6406-1.1406 7.3594l-20.559 15.102 20.559 15.102zm17.539 19.121c-1.1406 2.6797-4.2188 3.9219-6.8984 2.7812-2.6797-1.1406-3.9219-4.2188-2.7812-6.8984l27.5-64.301c1.1406-2.6797 4.2188-3.9219 6.8984-2.7812 2.6797 1.1406 3.9219 4.2188 2.7812 6.8984zm41.578-10.621c-2.3398 1.7188-5.6406 1.2188-7.3594-1.1406-1.7188-2.3398-1.2188-5.6406 1.1406-7.3594l20.559-15.102-20.559-15.102c-2.3398-1.7188-2.8594-5.0195-1.1406-7.3594s5.0195-2.8594 7.3594-1.1406l26.238 19.281c0.46094 0.32031 0.87891 0.71875 1.2188 1.1992 1.7188 2.3398 1.2188 5.6406-1.1406 7.3594l-26.34 19.34zm47.078-23.602v-0.019532c0-22.02-8.9219-41.941-23.359-56.359-14.422-14.422-34.359-23.359-56.383-23.359-22.02 0-41.961 8.9219-56.383 23.359-14.422 14.422-23.359 34.359-23.359 56.383s8.9219 41.961 23.359 56.383c14.422 14.422 34.359 23.359 56.383 23.359 22.02 0 41.961-8.9219 56.383-23.359 14.422-14.422 23.34-34.32 23.359-56.32z"/>
 </g>
</svg>
