<?xml version="1.0" encoding="UTF-8"?>
<svg width="512pt" height="512pt" version="1.1" viewBox="0 0 512 512" xmlns="http://www.w3.org/2000/svg">
 <path d="m177.84 310.65c-1.4023 0-2.6836 0.58203-3.6094 1.5039-0.92578 0.92578-1.5039 2.207-1.5039 3.6094v31.617c0 1.4023 0.58203 2.6836 1.5039 3.6094 0.92578 0.92578 2.207 1.5039 3.6094 1.5039h100.31v-41.848h-100.31zm281.32 45.332-66.02 31.938-4.4375-9.2031 66.02-31.938zm-30.211-77.773-72.805 107.2-8.4414-5.7227 72.805-107.2zm-371.68 68.57 66.02 31.938-4.4375 9.2031-66.02-31.938zm34.215-74.289 72.805 107.2-8.4414 5.7227-72.805-107.2zm205.09 175.62h60.184v5.1172h-60.184zm69.207 0h58.211v-9.2422l-122.98-17.875c-3.168-0.46094-6.2109-0.007813-8.8398 1.2266-2.6172 1.2266-4.9062 3.2773-6.5625 5.9922l-20.488 33.555h158.88v-8.543h-58.211v-5.1172zm-183.77-0.019531h34.809v5.1172h-34.809zm-93.992 0.019531h84.613v5.1172h-84.613v8.543h158.88l-20.488-33.555c-1.6562-2.7148-3.9414-4.7656-6.5625-5.9922-2.6289-1.2344-5.6719-1.6875-8.8398-1.2266l-122.98 17.875v9.2422zm-28.738 33.262v-4.2383c0-4.2344 1.7305-8.0781 4.5039-10.855 2.7773-2.7773 6.6211-4.5039 10.855-4.5039h3.1328v-27.32c0-2.6797 2.0664-4.8867 4.6914-5.1055l127.1-18.473c5.1445-0.74219 10.164 0.023438 14.598 2.1094 4.4375 2.082 8.2539 5.4727 10.965 9.9102l20.883 34.199 20.883-34.199c2.7109-4.4375 6.5234-7.832 10.965-9.9102 4.4336-2.0859 9.4531-2.8555 14.598-2.1094l127.39 18.516c2.5508 0.35547 4.3906 2.5508 4.3906 5.0625l0.011719 27.32h3.1328c4.2344 0 8.0781 1.7305 10.855 4.5039 2.7773 2.7773 4.5039 6.6211 4.5039 10.855v4.2383h8.3164c2.8242 0 5.1211 2.2969 5.1211 5.1211 0 2.8242-2.2969 5.1211-5.1211 5.1211h-410.08c-2.8242 0-5.1211-2.2969-5.1211-5.1211 0-2.8242 2.2969-5.1211 5.1211-5.1211h8.3164zm383.2 0v-4.2383c0-1.4023-0.58203-2.6836-1.5039-3.6094-0.92578-0.92578-2.207-1.5039-3.6094-1.5039h-362.73c-1.4023 0-2.6836 0.58203-3.6094 1.5039-0.92578 0.92578-1.5039 2.207-1.5039 3.6094v4.2383h372.96zm-64.777-393.25h-38.492v6.2969h38.492zm-38.492-5.1172h38.492v-7.0156h-38.492zm-188.51 5.1172h-28.742v6.2891h22.449l6.2969-6.2891zm-28.742-5.1172h33.863l7.0273-7.0156h-40.891zm255.74 16.527h-38.625c-0.22266 2.1875-0.71875 4.293-1.4648 6.2891h40.086v-6.2891zm-238.41-0.007813h-17.324v6.2969h11.133c0.24609-0.36719 0.55078-0.70703 0.89062-0.99609l5.3047-5.2969zm238.41 11.41h-42.676c-0.96875 1.4766-2.0859 2.8438-3.3242 4.0898-1.0781 1.0703-2.2422 2.0508-3.4883 2.9219h49.492v-7.0078zm-245.5 0h-10.242v7.0078h10.242zm-28.609 7.0078v-41.957h-7.3398c-4.2227 0-8.0742 1.7305-10.855 4.5-2.7695 2.7812-4.5 6.6328-4.5 10.855v11.246c0 4.2266 1.7305 8.0742 4.5 10.855 2.7812 2.7695 6.6328 4.5 10.855 4.5zm5.1172-41.957v41.957h8.1328v-41.957zm327.51 26.102h-13.066l-37.148 24.988c-0.87109 0.69531-1.9766 1.1133-3.1797 1.1133h-38.207l4.5117 26.316 0.042969 1.3359-10.016 103.09c-0.15625 1.6992-0.47656 3.3555-1.0469 4.9414l-0.12109 0.35156c-0.70703 1.8555-1.7773 3.5977-3.332 5.1406l-20.191 20.18v10.871h9.3867c4.2344 0 8.0781 1.7305 10.855 4.5039 2.7773 2.7773 4.5039 6.6211 4.5039 10.855v31.617c0 4.2344-1.7305 8.0781-4.5039 10.855-2.7773 2.7773-6.6211 4.5039-10.855 4.5039h-146.01c-4.2344 0-8.0781-1.7305-10.855-4.5039-2.7773-2.7773-4.5039-6.6211-4.5039-10.855v-31.617c0-4.2344 1.7305-8.0781 4.5039-10.855 2.7773-2.7773 6.6211-4.5039 10.855-4.5039h5.9336v-34.48c0-0.58594-0.074219-1.1172-0.20703-1.5547-0.15234-0.48438-0.38672-0.95703-0.69531-1.4023l-49.738-71.969c-0.60937-0.88281-0.90234-1.8984-0.90234-2.8984l-0.019531-59.922h-35.957c-7.0195 0-13.426-2.8828-18.062-7.5117-4.6484-4.6641-7.5352-11.059-7.5352-18.086v-11.246c0-7.0195 2.8828-13.426 7.5117-18.062 4.6641-4.6484 11.066-7.5352 18.086-7.5352h66.773v-19.75c0-7.0586 2.9102-13.48 7.6211-18.129 4.668-4.5977 11.109-7.4609 18.246-7.4609s13.574 2.8672 18.246 7.4609c0.89453 0.88281 1.7344 1.832 2.4922 2.8438 0.73047-0.98047 1.5352-1.9062 2.3945-2.7695 4.6641-4.6484 11.059-7.5352 18.082-7.5352h0.54297c7.0195 0 13.418 2.8828 18.059 7.5117 0.86328 0.87109 1.6758 1.7969 2.4141 2.7812 0.73047-0.97266 1.5312-1.8984 2.3906-2.7578 4.6641-4.6484 11.059-7.5352 18.082-7.5352h0.54297c7.0195 0 13.418 2.8828 18.059 7.5117 0.86328 0.87109 1.6758 1.7969 2.4141 2.7812 0.73047-0.97266 1.5312-1.8984 2.3906-2.7578 4.6641-4.6484 11.059-7.5352 18.082-7.5352h0.54297c7.0195 0 13.418 2.8828 18.059 7.5117 4.6484 4.6641 7.5352 11.059 7.5352 18.082v19.75h43.613c1.2031 0 2.3086 0.41797 3.1797 1.1133l37.148 24.988h13.066v10.242zm-48.277 11.383 24.535-16.504-24.535-16.504zm-53.695 14.719h-145.86l-3.8086 14.23c7.6992 0.9375 15.156 3.0703 22.098 6.2773 8.8477 4.0938 16.91 9.9492 23.598 17.277 6.6953 7.3281 11.785 15.887 15.051 25.07 3.2656 9.1602 4.7188 19 4.1602 28.926-0.15234 2.8125-2.5625 4.9727-5.375 4.8203s-4.9727-2.5625-4.8203-5.375c0.47656-8.543-0.78125-17.043-3.6055-24.969-2.8047-7.8906-7.1953-15.262-12.973-21.59-5.7617-6.3203-12.707-11.363-20.32-14.883-7.5352-3.4844-15.746-5.5039-24.176-5.8398-0.48828 0.019532-0.98438-0.035156-1.4805-0.16797-2.7266-0.72656-4.3477-3.5312-3.6211-6.2578 5.293-19.75 10.57-39.496 15.863-59.25 0.17969-0.67578 0.24219-1.3008 0.1875-1.8633-0.046875-0.5625-0.23438-1.1562-0.53906-1.7656l-2.793-5.668c-0.39453-0.79297-0.91797-1.4375-1.5234-1.8867-0.64844-0.48438-1.4141-0.79688-2.2812-0.9375-0.875-0.14062-1.7109-0.089843-2.4492 0.14453-0.76172 0.23047-1.5 0.75781-2.0547 1.3125-11.688 11.652-23.387 23.332-35.082 35.008v75.754l48.812 70.633c0.92578 1.3438 1.6133 2.7227 2.0625 4.1602 0.46094 1.4883 0.6875 3.0117 0.6875 4.5898v34.48h110.21v-12.973c0-1.5469 0.6875-2.9375 1.7773-3.875l21.461-21.449c0.43359-0.42969 0.75781-0.96094 0.97266-1.5352l0.097657-0.24219c0.23437-0.6875 0.38281-1.5 0.46484-2.3633l9.9492-102.39-4.6914-27.395zm-130.55-10.242h11.809c-1.2383-0.86328-2.3945-1.832-3.4609-2.8984-0.87109-0.87109-1.6797-1.8086-2.418-2.793-0.76172 1.0039-1.5977 1.9531-2.4922 2.8438-1.0586 1.0469-2.207 1.9961-3.4414 2.8477zm41.543 0h11.75c-1.2383-0.86328-2.3945-1.832-3.4609-2.8984-0.86328-0.87109-1.6758-1.7969-2.4141-2.7812-0.73047 0.97266-1.5312 1.8984-2.3906 2.7578-1.0781 1.0703-2.2422 2.0508-3.4883 2.9219zm41.484 0h11.75c-1.2383-0.86328-2.3945-1.832-3.4609-2.8984-0.86328-0.87109-1.6758-1.7969-2.4141-2.7812-0.73047 0.97266-1.5312 1.8984-2.3906 2.7578-1.0781 1.0703-2.2422 2.0508-3.4883 2.9219zm-113.45-52.199h0.81641c0.76172-0.39844 1.5586-0.73047 2.375-0.99219 2.2812-0.72656 4.7305-0.90234 7.2148-0.49609 2.4922 0.41016 4.7539 1.3594 6.6719 2.7773 1.9453 1.4336 3.5195 3.332 4.6445 5.6016l2.7891 5.6367c0.84766 1.6914 1.3672 3.4766 1.5469 5.3164 0.17969 1.832 0.023437 3.6719-0.46484 5.5039l-6.0898 22.758c2.7891-0.6875 5.2539-2.1094 7.2031-4.0273 2.9141-2.8711 4.5352-6.7617 4.5352-10.848v-50.973c0-4.0938-1.6211-7.9688-4.5352-10.848-2.8125-2.7695-6.7227-4.5-11.086-4.5-4.3594 0-8.2734 1.7305-11.086 4.5-2.8047 2.7695-4.5352 6.6094-4.5352 10.848v19.75zm128.95 42.07c2.7812 2.7695 6.6289 4.5 10.848 4.5h0.54297c4.2227 0 8.0664-1.7305 10.848-4.5 2.7695-2.7812 4.5-6.6289 4.5-10.848v-50.973c0-4.2227-1.7305-8.0664-4.5-10.848-2.7812-2.7695-6.6289-4.5-10.848-4.5h-0.54297c-4.2227 0-8.0664 1.7305-10.848 4.5-2.8789 2.8906-4.5 6.7734-4.5 10.848v50.973c0 4.0742 1.6211 7.957 4.5 10.848zm-41.484 0c2.7812 2.7695 6.6289 4.5 10.848 4.5h0.54297c4.2227 0 8.0664-1.7305 10.848-4.5 2.8828-2.8984 4.5-6.7617 4.5-10.848v-50.973c0-4.0898-1.6133-7.9531-4.5-10.848-2.7812-2.7695-6.6289-4.5-10.848-4.5h-0.54297c-4.2227 0-8.0664 1.7305-10.848 4.5-2.8789 2.8906-4.5 6.7734-4.5 10.848v50.973c0 4.0742 1.6211 7.957 4.5 10.848zm-45.984-61.82v50.973c0 4.0898 1.6133 7.9531 4.5 10.848 2.7812 2.7695 6.6289 4.5 10.848 4.5h0.54297c4.2227 0 8.0664-1.7305 10.848-4.5 2.8828-2.8984 4.5-6.7617 4.5-10.848v-50.973c0-4.0898-1.6133-7.9531-4.5-10.848-2.7812-2.7695-6.6289-4.5-10.848-4.5h-0.54297c-4.2227 0-8.0664 1.7305-10.848 4.5-2.8828 2.8984-4.5 6.7617-4.5 10.848zm-23.844 290.71h-5.1211v-10.242h37.355v10.242zm104.73 15.801v-41.848h-7.25v41.848zm10.242-41.848v41.848h17.961c1.4023 0 2.6836-0.58203 3.6094-1.5039 0.92578-0.92578 1.5039-2.207 1.5039-3.6094v-31.617c0-1.4023-0.58203-2.6836-1.5039-3.6094-0.92578-0.92578-2.207-1.5039-3.6094-1.5039h-17.961z" fill="#999"/>
</svg>
