<svg xmlns="http://www.w3.org/2000/svg" xmlns:xlink="http://www.w3.org/1999/xlink" viewBox="0 0 48 49"><path d="M 24 3.355 C 12.398 3.355 3 12.752 3 24.355 C 3 33.648 9.011 41.496 17.359 44.279 C 18.409 44.462 18.802 43.833 18.802 43.281 C 18.802 42.782 18.776 41.129 18.776 39.37 C 13.5 40.341 12.135 38.084 11.715 36.903 C 11.479 36.299 10.455 34.435 9.563 33.936 C 8.828 33.542 7.777 32.571 9.536 32.545 C 11.19 32.519 12.371 34.068 12.765 34.697 C 14.655 37.874 17.674 36.981 18.881 36.43 C 19.065 35.065 19.616 34.146 20.22 33.621 C 15.547 33.096 10.665 31.285 10.665 23.253 C 10.665 20.969 11.479 19.079 12.818 17.609 C 12.607 17.084 11.873 14.931 13.027 12.044 C 13.027 12.044 14.786 11.492 18.802 14.196 C 20.483 13.724 22.267 13.488 24.052 13.488 C 25.837 13.488 27.622 13.724 29.302 14.196 C 33.319 11.466 35.078 12.044 35.078 12.044 C 36.233 14.931 35.498 17.084 35.288 17.609 C 36.626 19.079 37.44 20.942 37.44 23.253 C 37.44 31.311 32.531 33.096 27.859 33.621 C 28.62 34.278 29.276 35.538 29.276 37.506 C 29.276 40.315 29.25 42.572 29.25 43.281 C 29.25 43.833 29.644 44.489 30.694 44.279 C 34.863 42.871 38.485 40.192 41.052 36.618 C 43.618 33.044 44.999 28.755 45 24.355 C 45 12.752 35.602 3.355 24 3.355 Z" fill="rgb(255, 255, 255)"></path></svg>