<?xml version="1.0" encoding="UTF-8"?>
<!DOCTYPE svg PUBLIC "-//W3C//DTD SVG 1.1//EN" "http://www.w3.org/Graphics/SVG/1.1/DTD/svg11.dtd">
<svg xmlns="http://www.w3.org/2000/svg" version="1.1" width="3600px" height="1800px" style="shape-rendering:geometricPrecision; text-rendering:geometricPrecision; image-rendering:optimizeQuality; fill-rule:evenodd; clip-rule:evenodd" xmlns:xlink="http://www.w3.org/1999/xlink">
<g><path style="opacity:0.924" fill="#fefffe" d="M 362.5,631.5 C 364.527,631.338 366.527,631.505 368.5,632C 396.644,663.787 415.144,700.62 424,742.5C 426,758.5 426,774.5 424,790.5C 423.116,798.094 421.282,805.428 418.5,812.5C 411.869,817.463 405.869,823.13 400.5,829.5C 398.926,830.631 397.259,830.798 395.5,830C 397.157,803.435 393.324,777.602 384,752.5C 378.861,740.888 373.194,729.554 367,718.5C 358.253,734.49 350.753,750.99 344.5,768C 344.833,768.333 345.167,768.667 345.5,769C 343.984,770.897 343.317,773.064 343.5,775.5C 342.448,775.649 341.448,775.483 340.5,775C 335.424,767.253 329.591,760.087 323,753.5C 319.115,749.48 314.948,745.814 310.5,742.5C 309.348,739.894 309.182,737.227 310,734.5C 315.843,709.494 325.509,686.161 339,664.5C 346.664,653.343 354.498,642.343 362.5,631.5 Z"/></g>
<g><path style="opacity:0.924" fill="#fefffe" d="M 173.5,708.5 C 226.689,710.493 273.022,728.993 312.5,764C 322.592,775.025 331.592,786.858 339.5,799.5C 338.246,810.492 337.746,821.492 338,832.5C 332.942,828.449 328.108,823.949 323.5,819C 306.909,803.532 287.909,791.865 266.5,784C 257.185,780.89 247.852,778.224 238.5,776C 242.324,788.139 246.157,800.306 250,812.5C 253.165,818.489 255.998,824.489 258.5,830.5C 254.116,829.99 249.782,829.157 245.5,828C 234.303,826.968 223.469,826.468 213,826.5C 188.4,791.201 175.233,751.868 173.5,708.5 Z"/></g>
<g><path style="opacity:0.922" fill="#fefffe" d="M 545.5,708.5 C 549.5,708.5 553.5,708.5 557.5,708.5C 556.149,754.392 541.982,795.725 515,832.5C 500.381,849.551 483.215,863.384 463.5,874C 455.451,874.197 447.451,874.697 439.5,875.5C 438.355,874.224 438.355,872.891 439.5,871.5C 457.66,854.192 472.16,834.192 483,811.5C 486.769,799.527 490.936,787.693 495.5,776C 474.586,778.935 454.92,786.435 436.5,798.5C 435.119,798 434.453,797 434.5,795.5C 435.655,790.891 436.488,786.225 437,781.5C 437.333,770.167 437.667,758.833 438,747.5C 461.249,731.302 486.749,720.135 514.5,714C 524.935,711.929 535.268,710.096 545.5,708.5 Z"/></g>
<g><path style="opacity:0.856" fill="#fefffe" d="M 365.5,752.5 C 366.822,752.33 367.989,752.663 369,753.5C 382.074,787.197 385.574,822.197 379.5,858.5C 371.827,857.291 364.161,857.291 356.5,858.5C 355.353,858.182 354.519,857.516 354,856.5C 349.881,826.837 351.547,797.503 359,768.5C 360.881,763.017 363.048,757.684 365.5,752.5 Z"/></g>
<g><path style="opacity:0.926" fill="#fefffe" d="M 2760.5,758.5 C 2797.16,755.321 2811.66,771.654 2804,807.5C 2800.77,815.063 2795.27,820.229 2787.5,823C 2744.71,831.549 2728.55,814.715 2739,772.5C 2744.24,764.74 2751.41,760.073 2760.5,758.5 Z"/></g>
<g><path style="opacity:0.925" fill="#fefffe" d="M 3256.5,758.5 C 3292.46,755.287 3307.3,771.287 3301,806.5C 3294.01,820.332 3282.68,826.666 3267,825.5C 3258.69,825.644 3250.86,823.81 3243.5,820C 3237.6,816.084 3234.1,810.584 3233,803.5C 3230.59,791.721 3231.92,780.388 3237,769.5C 3242.33,763.591 3248.83,759.925 3256.5,758.5 Z"/></g>
<g><path style="opacity:0.936" fill="#fefffe" d="M 839.5,787.5 C 848.085,787.183 856.585,787.517 865,788.5C 865.333,863.5 865.667,938.5 866,1013.5C 866.033,1020.27 867.7,1026.6 871,1032.5C 875.166,1037 880.333,1039.5 886.5,1040C 921.833,1040.33 957.167,1040.67 992.5,1041C 993.833,1058.33 993.833,1075.67 992.5,1093C 948.808,1093.96 905.141,1093.62 861.5,1092C 836.847,1089.78 820.014,1077.28 811,1054.5C 808.45,1043.65 807.117,1032.65 807,1021.5C 806.333,952.833 806.333,884.167 807,815.5C 805.528,800.656 812.028,791.822 826.5,789C 831.019,788.825 835.353,788.325 839.5,787.5 Z"/></g>
<g><path style="opacity:0.944" fill="#fefffe" d="M 2029.5,787.5 C 2037.75,787.184 2045.92,787.518 2054,788.5C 2054.33,826.5 2054.67,864.5 2055,902.5C 2075.04,875.732 2101.87,862.065 2135.5,861.5C 2177.42,861.586 2202.26,882.253 2210,923.5C 2210.33,928.5 2210.67,933.5 2211,938.5C 2211.95,985.854 2211.62,1033.19 2210,1080.5C 2207.41,1087.43 2202.57,1091.93 2195.5,1094C 2182.55,1095.38 2169.55,1095.88 2156.5,1095.5C 2156.95,1046.14 2156.45,996.811 2155,947.5C 2147.11,916.377 2127.44,904.711 2096,912.5C 2071.35,921.117 2057.68,938.45 2055,964.5C 2054.5,1007.5 2054.33,1050.5 2054.5,1093.5C 2036.21,1093.55 2018.04,1093.55 2000,1093.5C 1999.33,997.167 1999.33,900.833 2000,804.5C 2001.94,795.558 2007.44,790.392 2016.5,789C 2021.02,788.825 2025.35,788.325 2029.5,787.5 Z"/></g>
<g><path style="opacity:0.935" fill="#fefffe" d="M 2543.5,787.5 C 2552.09,787.183 2560.59,787.517 2569,788.5C 2569.33,864.5 2569.67,940.5 2570,1016.5C 2569.98,1029.81 2576.48,1037.64 2589.5,1040C 2625.17,1040.33 2660.83,1040.67 2696.5,1041C 2697.49,1058.42 2697.83,1075.92 2697.5,1093.5C 2653.14,1093.96 2608.81,1093.46 2564.5,1092C 2530.53,1086.7 2512.7,1066.87 2511,1032.5C 2510.33,957.5 2510.33,882.5 2511,807.5C 2513.14,797.36 2519.31,791.194 2529.5,789C 2534.35,788.826 2539.02,788.326 2543.5,787.5 Z"/></g>
<g><path style="opacity:0.94" fill="#fefffe" d="M 1720.5,789.5 C 1799.54,789.014 1878.54,789.514 1957.5,791C 1966.31,797.118 1970.47,805.618 1970,816.5C 1970.67,825.833 1970.67,835.167 1970,844.5C 1937.91,843.504 1905.74,843.171 1873.5,843.5C 1873.5,926.833 1873.5,1010.17 1873.5,1093.5C 1854.26,1093.83 1835.09,1093.49 1816,1092.5C 1815.5,1009.5 1815.33,926.501 1815.5,843.5C 1783.5,843.667 1751.5,843.5 1719.5,843C 1718.34,826.241 1718.18,809.407 1719,792.5C 1719.51,791.473 1720.01,790.473 1720.5,789.5 Z"/></g>
<g><path style="opacity:0.876" fill="#fefffe" d="M 259.5,796.5 C 294.548,809.869 322.548,832.203 343.5,863.5C 339.249,866.244 335.415,869.578 332,873.5C 331.257,876.511 329.924,879.178 328,881.5C 321.256,876.212 314.423,871.045 307.5,866C 302.333,859.5 296.5,853.667 290,848.5C 276.756,833.062 266.589,815.729 259.5,796.5 Z"/></g>
<g><path style="opacity:0.882" fill="#fefffe" d="M 470.5,796.5 C 471.978,796.238 473.311,796.571 474.5,797.5C 469.7,809.102 463.867,820.102 457,830.5C 441.869,849.298 425.035,866.465 406.5,882C 405.833,882.667 405.167,882.667 404.5,882C 401.091,875.671 396.424,870.504 390.5,866.5C 389.369,864.926 389.202,863.259 390,861.5C 406.654,840.841 425.821,823.008 447.5,808C 455.259,804.121 462.925,800.287 470.5,796.5 Z"/></g>
<g><path style="opacity:0.945" fill="#fefffe" d="M 3400.5,813.5 C 3405.55,813.337 3410.55,813.671 3415.5,814.5C 3415.5,831.833 3415.5,849.167 3415.5,866.5C 3441.9,866.027 3468.23,866.527 3494.5,868C 3497.99,870.465 3500.49,873.632 3502,877.5C 3503.38,888.779 3503.88,900.112 3503.5,911.5C 3474.17,911.5 3444.83,911.5 3415.5,911.5C 3415.33,943.835 3415.5,976.168 3416,1008.5C 3416.39,1036.06 3430.23,1050.72 3457.5,1052.5C 3472.34,1051.96 3486.34,1048.29 3499.5,1041.5C 3505.09,1059.52 3500.42,1074.35 3485.5,1086C 3460.26,1099.47 3433.92,1102.13 3406.5,1094C 3393.63,1090 3383.47,1082.5 3376,1071.5C 3366.6,1057.31 3361.6,1041.64 3361,1024.5C 3360.83,985.829 3360.33,947.162 3359.5,908.5C 3347.66,904.335 3335.99,900.002 3324.5,895.5C 3325.52,884.93 3329.19,875.43 3335.5,867C 3343.83,866.5 3352.16,866.334 3360.5,866.5C 3360.33,854.495 3360.5,842.495 3361,830.5C 3362.34,822.819 3366.84,817.986 3374.5,816C 3383.29,814.993 3391.96,814.16 3400.5,813.5 Z"/></g>
<g><path style="opacity:0.927" fill="#fefffe" d="M 216.5,841.5 C 234.645,840.699 252.645,841.865 270.5,845C 278.736,854.726 287.069,864.226 295.5,873.5C 295.167,874.167 294.833,874.833 294.5,875.5C 266.282,872.508 239.282,877.008 213.5,889C 203.183,893.824 193.183,899.158 183.5,905C 193.471,909.098 203.137,913.764 212.5,919C 220.294,922.21 228.294,924.71 236.5,926.5C 236.649,927.552 236.483,928.552 236,929.5C 225.209,936.624 216.042,945.457 208.5,956C 206.167,956.667 203.833,956.667 201.5,956C 162.704,945.686 127.871,927.853 97,902.5C 96.2571,900.559 96.4238,898.726 97.5,897C 105.119,891.716 112.452,886.049 119.5,880C 148.991,859.918 181.324,847.085 216.5,841.5 Z"/></g>
<g><path style="opacity:0.919" fill="#fefffe" d="M 488.5,879.5 C 488.238,878.022 488.571,876.689 489.5,875.5C 502.758,866.854 514.425,856.354 524.5,844C 544.981,847.493 564.648,853.826 583.5,863C 592.335,868.585 601.335,873.919 610.5,879C 618.5,885 626.5,891 634.5,897C 636.211,898.133 636.711,899.633 636,901.5C 612.938,921.455 587.104,936.955 558.5,948C 525.01,961.103 491.01,962.769 456.5,953C 452,947.167 446.833,942 441,937.5C 440.506,935.866 440.34,934.199 440.5,932.5C 468.85,933.903 496.183,929.403 522.5,919C 531.665,913.919 540.665,908.585 549.5,903C 530.444,891.924 510.11,884.091 488.5,879.5 Z"/></g>
<g><path style="opacity:0.941" fill="#fefffe" d="M 1114.5,861.5 C 1142.16,858.005 1167.83,863.505 1191.5,878C 1221.36,902.271 1234.86,933.771 1232,972.5C 1230.68,984.155 1224.51,991.989 1213.5,996C 1208.29,997.642 1202.96,998.642 1197.5,999C 1158.17,999.333 1118.83,999.667 1079.5,1000C 1082.85,1010.03 1087.35,1019.53 1093,1028.5C 1102.19,1037.68 1113.02,1044.18 1125.5,1048C 1155.93,1054.9 1185.6,1052.4 1214.5,1040.5C 1215.17,1040.83 1215.83,1041.17 1216.5,1041.5C 1215.7,1049.45 1215.2,1057.45 1215,1065.5C 1212.04,1074.13 1206.54,1080.63 1198.5,1085C 1158.63,1102.56 1118.63,1102.89 1078.5,1086C 1053.12,1071.94 1035.62,1051.1 1026,1023.5C 1018.24,994.306 1017.57,964.973 1024,935.5C 1035.26,903.907 1056.43,881.74 1087.5,869C 1096.51,866.002 1105.51,863.502 1114.5,861.5 Z M 1124.5,903.5 C 1139.04,902.337 1151.87,906.337 1163,915.5C 1172.13,926.547 1175.79,939.214 1174,953.5C 1173.17,957 1171,959.167 1167.5,960C 1137.17,960.667 1106.83,960.667 1076.5,960C 1078.46,944.124 1083.96,929.624 1093,916.5C 1102.07,908.537 1112.57,904.203 1124.5,903.5 Z"/></g>
<g><path style="opacity:0.94" fill="#fefffe" d="M 1342.5,861.5 C 1372.09,857.374 1399.09,863.707 1423.5,880.5C 1433.56,889.388 1441.06,900.054 1446,912.5C 1450.17,925.526 1452.84,938.859 1454,952.5C 1458.12,994.759 1460.79,1037.09 1462,1079.5C 1459.35,1086.81 1454.19,1091.31 1446.5,1093C 1432.92,1095.07 1419.25,1095.9 1405.5,1095.5C 1405.33,1083.11 1404.5,1070.78 1403,1058.5C 1384.16,1084.34 1358.66,1097.67 1326.5,1098.5C 1287.43,1096.93 1264.26,1076.93 1257,1038.5C 1254.09,1009.83 1265.25,988.659 1290.5,975C 1301.52,969.327 1313.19,965.66 1325.5,964C 1349.44,960.906 1373.44,958.406 1397.5,956.5C 1397.54,932.372 1386.2,916.538 1363.5,909C 1334.58,902.77 1306.92,906.27 1280.5,919.5C 1274.84,903.721 1278.5,890.221 1291.5,879C 1307.49,869.927 1324.49,864.094 1342.5,861.5 Z M 1392.5,992.5 C 1394.6,992.201 1396.6,992.534 1398.5,993.5C 1397.04,1016.1 1388.04,1034.93 1371.5,1050C 1359.96,1057.42 1347.62,1059.09 1334.5,1055C 1326.26,1051.09 1321.43,1044.59 1320,1035.5C 1316.24,1016.17 1323.74,1004 1342.5,999C 1359.32,996.857 1375.98,994.69 1392.5,992.5 Z"/></g>
<g><path style="opacity:0.946" fill="#fefffe" d="M 1632.5,861.5 C 1692.98,858.146 1727.48,886.479 1736,946.5C 1741.61,987.032 1732.95,1024.03 1710,1057.5C 1676.88,1097.24 1636.38,1107.4 1588.5,1088C 1580.15,1083.98 1573.31,1078.15 1568,1070.5C 1567.5,1103.16 1567.33,1135.83 1567.5,1168.5C 1548.83,1168.5 1530.17,1168.5 1511.5,1168.5C 1511.01,1071.46 1511.51,974.464 1513,877.5C 1515.77,871.06 1520.61,867.226 1527.5,866C 1540.46,864.456 1553.46,864.123 1566.5,865C 1567.32,878.425 1567.82,891.925 1568,905.5C 1574.03,895.13 1581.87,886.296 1591.5,879C 1604.23,870.709 1617.9,864.876 1632.5,861.5 Z M 1624.5,907.5 C 1652.99,906.573 1670.49,919.573 1677,946.5C 1683.29,975.821 1678.62,1003.15 1663,1028.5C 1645.59,1049.42 1624.09,1055.25 1598.5,1046C 1579.56,1032.95 1570.56,1014.79 1571.5,991.5C 1571.04,969.986 1576.21,949.986 1587,931.5C 1596.31,918.277 1608.81,910.277 1624.5,907.5 Z"/></g>
<g><path style="opacity:0.941" fill="#fefffe" d="M 2348.5,861.5 C 2377.42,858.09 2404.09,864.257 2428.5,880C 2449.16,897.883 2461.33,919.717 2465,945.5C 2466.21,954.476 2466.54,963.476 2466,972.5C 2464.05,985.231 2456.88,993.397 2444.5,997C 2440.21,997.912 2435.87,998.579 2431.5,999C 2391.89,999.488 2352.56,999.655 2313.5,999.5C 2316.75,1009.74 2321.25,1019.41 2327,1028.5C 2344.47,1045.3 2365.47,1053.3 2390,1052.5C 2398.52,1051.84 2407.02,1051.01 2415.5,1050C 2427.2,1047.91 2438.53,1044.91 2449.5,1041C 2454.71,1067.24 2444.38,1083.9 2418.5,1091C 2378.24,1104.05 2339.58,1100.55 2302.5,1080.5C 2289.08,1071.25 2278.25,1059.58 2270,1045.5C 2253.05,1010.64 2249.05,974.308 2258,936.5C 2268.58,904.109 2289.75,881.609 2321.5,869C 2330.51,866.002 2339.51,863.502 2348.5,861.5 Z M 2358.5,903.5 C 2393,902.496 2409.5,919.163 2408,953.5C 2407.17,957 2405,959.167 2401.5,960C 2371.17,960.667 2340.83,960.667 2310.5,960C 2311.53,944.556 2316.7,930.723 2326,918.5C 2334.94,909.277 2345.78,904.277 2358.5,903.5 Z"/></g>
<g><path style="opacity:0.946" fill="#fefffe" d="M 2965.5,861.5 C 2989.27,857.828 3010.1,863.828 3028,879.5C 3034.47,886.765 3039.14,895.099 3042,904.5C 3063.86,872.159 3094.36,857.992 3133.5,862C 3157.03,866.531 3172.86,880.031 3181,902.5C 3182.85,909.065 3184.18,915.731 3185,922.5C 3185.98,976.204 3185.65,1029.87 3184,1083.5C 3181.67,1089.16 3177.5,1092.66 3171.5,1094C 3158.21,1095.38 3144.88,1095.88 3131.5,1095.5C 3131.97,1044.14 3131.47,992.804 3130,941.5C 3128.56,927.442 3121.39,917.608 3108.5,912C 3085.76,907.289 3068.26,914.789 3056,934.5C 3053.93,940.311 3051.59,945.978 3049,951.5C 3048.24,955.819 3047.57,960.152 3047,964.5C 3046.5,1007.5 3046.33,1050.5 3046.5,1093.5C 3028.55,1093.52 3010.55,1093.52 2992.5,1093.5C 2991.96,1042.81 2991.13,992.145 2990,941.5C 2984.97,916.828 2969.97,906.828 2945,911.5C 2927.65,916.659 2916.32,928.326 2911,946.5C 2909.45,952.454 2908.12,958.454 2907,964.5C 2906.83,1007.5 2906.33,1050.5 2905.5,1093.5C 2887.62,1093.54 2869.62,1093.54 2851.5,1093.5C 2851.33,1022.83 2851.5,952.166 2852,881.5C 2854.65,870.851 2861.49,865.351 2872.5,865C 2883.83,864.5 2895.16,864.333 2906.5,864.5C 2906.33,876.505 2906.5,888.505 2907,900.5C 2921.66,880.097 2941.16,867.097 2965.5,861.5 Z"/></g>
<g><path style="opacity:0.938" fill="#fefffe" d="M 2766.5,863.5 C 2776.42,863.181 2786.25,863.514 2796,864.5C 2796.5,940.833 2796.67,1017.17 2796.5,1093.5C 2778.17,1093.5 2759.83,1093.5 2741.5,1093.5C 2741.33,1022.5 2741.5,951.499 2742,880.5C 2743.25,873.247 2747.41,868.414 2754.5,866C 2758.64,865.161 2762.64,864.327 2766.5,863.5 Z"/></g>
<g><path style="opacity:0.94" fill="#fefffe" d="M 3263.5,863.5 C 3273.17,863.5 3282.83,863.5 3292.5,863.5C 3292.5,940.167 3292.5,1016.83 3292.5,1093.5C 3274.17,1093.5 3255.83,1093.5 3237.5,1093.5C 3237.33,1023.17 3237.5,952.833 3238,882.5C 3238.99,872.511 3244.49,866.678 3254.5,865C 3257.69,864.819 3260.69,864.319 3263.5,863.5 Z"/></g>
<g><path style="opacity:0.904" fill="#fefffe" d="M 360.5,871.5 C 380.423,870.939 391.756,880.439 394.5,900C 392.108,920.054 380.775,929.721 360.5,929C 348.151,926.909 340.651,919.742 338,907.5C 335.608,889.102 343.108,877.102 360.5,871.5 Z"/></g>
<g><path style="opacity:0.004" fill="#fefffe" d="M 488.5,879.5 C 487.833,880.167 487.833,880.167 488.5,879.5 Z"/></g>
<g><path style="opacity:0.857" fill="#fefffe" d="M 268.5,888.5 C 286.244,887.957 303.91,888.79 321.5,891C 321.453,898.342 322.453,905.675 324.5,913C 324.355,913.772 324.022,914.439 323.5,915C 286.573,921.756 250.573,918.59 215.5,905.5C 215.286,903.856 215.62,902.356 216.5,901C 233.318,894.34 250.651,890.173 268.5,888.5 Z"/></g>
<g><path style="opacity:0.858" fill="#fefffe" d="M 425.5,888.5 C 454.107,886.594 482.107,889.76 509.5,898C 511.5,899 513.5,900 515.5,901C 517.007,901.837 517.507,903.004 517,904.5C 503.34,911.497 488.84,915.663 473.5,917C 451.437,919.151 429.437,918.651 407.5,915.5C 408.288,907.191 408.621,898.858 408.5,890.5C 414.36,890.283 420.027,889.617 425.5,888.5 Z"/></g>
<g><path style="opacity:0.879" fill="#fefffe" d="M 402.5,923.5 C 435.412,945.199 459.079,974.032 473.5,1010C 471.087,1010.48 468.754,1010.15 466.5,1009C 455.542,1003.52 444.875,997.521 434.5,991C 429.167,986.333 423.833,981.667 418.5,977C 412.032,969.53 405.198,962.364 398,955.5C 393.658,950.14 389.824,944.473 386.5,938.5C 386.608,937.558 386.941,936.725 387.5,936C 393.567,933.099 398.567,928.932 402.5,923.5 Z"/></g>
<g><path style="opacity:0.875" fill="#fefffe" d="M 328.5,924.5 C 334.06,929.899 339.727,935.065 345.5,940C 325.032,969.468 298.698,992.134 266.5,1008C 264.091,1009.71 261.425,1010.54 258.5,1010.5C 261.157,1002.18 264.657,994.181 269,986.5C 285.022,962.076 304.855,941.409 328.5,924.5 Z"/></g>
<g><path style="opacity:0.92" fill="#fefffe" d="M 258.5,931.5 C 270.453,933.219 282.453,933.719 294.5,933C 295.022,933.561 295.355,934.228 295.5,935C 267.978,959.85 249.478,990.35 240,1026.5C 239.205,1028.9 238.038,1031.07 236.5,1033C 256.874,1027.59 276.541,1020.09 295.5,1010.5C 295.833,1011 296.167,1011.5 296.5,1012C 294.873,1025.43 294.039,1038.93 294,1052.5C 257.841,1077.5 217.674,1090.83 173.5,1092.5C 175.427,1044.2 191.261,1001.2 221,963.5C 232.515,951.469 245.015,940.803 258.5,931.5 Z"/></g>
<g><path style="opacity:0.863" fill="#fefffe" d="M 355.5,942.5 C 363.162,943.786 370.828,943.786 378.5,942.5C 383.996,969.869 383.83,997.202 378,1024.5C 375.159,1034.54 372.325,1044.54 369.5,1054.5C 367.712,1054.79 366.045,1054.45 364.5,1053.5C 353.477,1024.13 349.644,993.8 353,962.5C 353.508,955.779 354.341,949.112 355.5,942.5 Z"/></g>
<g><path style="opacity:0.922" fill="#fefffe" d="M 471.5,969.5 C 487.062,971.787 502.729,973.12 518.5,973.5C 542.647,1009.21 555.98,1048.71 558.5,1092C 510.726,1091.08 468.059,1076.08 430.5,1047C 416.419,1034.93 404.586,1021.1 395,1005.5C 394.833,1004.33 394.667,1003.17 394.5,1002C 395.744,993.608 395.744,985.275 394.5,977C 395.167,976.833 395.833,976.667 396.5,976.5C 404.006,982.841 411.339,989.341 418.5,996C 441.681,1014.26 467.681,1026.59 496.5,1033C 493.082,1022.17 489.582,1011.34 486,1000.5C 482.804,990.435 477.804,981.435 471,973.5C 470.421,972.072 470.588,970.738 471.5,969.5 Z"/></g>
<g><path style="opacity:0.923" fill="#fefffe" d="M 390.5,1028.5 C 391.873,1028.34 393.207,1028.51 394.5,1029C 402.255,1040.09 411.421,1049.92 422,1058.5C 421.994,1063.54 421.328,1068.54 420,1073.5C 409.999,1107.18 393.999,1137.51 372,1164.5C 369.692,1168.3 366.525,1169.3 362.5,1167.5C 340.917,1142.01 324.751,1113.35 314,1081.5C 305.679,1054.52 304.346,1027.18 310,999.5C 318.01,992.322 325.844,984.989 333.5,977.5C 334.736,976.754 336.07,976.421 337.5,976.5C 335.779,1007.17 341.279,1036.5 354,1064.5C 358.333,1072.5 362.667,1080.5 367,1088.5C 372.728,1076.04 378.728,1063.71 385,1051.5C 387.939,1044.08 389.772,1036.41 390.5,1028.5 Z"/></g>
<g><path style="opacity:0.004" fill="#fefffe" d="M 390.5,1028.5 C 389.833,1027.17 389.833,1027.17 390.5,1028.5 Z"/></g>
</svg>
