<svg xmlns="http://www.w3.org/2000/svg" xmlns:xlink="http://www.w3.org/1999/xlink" viewBox="0 0 32 34"><path d="M 7.803 22.83 C 7.344 22.135 8.499 21.083 8.029 20.2 C 7.758 19.69 7.316 19.372 6.784 19.306 C 6.274 19.242 5.749 19.429 5.414 19.794 C 4.885 20.369 4.802 21.152 4.905 21.43 C 4.942 21.531 5.001 21.559 5.043 21.565 C 5.331 21.603 5.493 20.864 5.593 20.71 C 5.868 20.285 6.492 20.157 6.923 20.436 C 7.741 20.965 7.032 21.819 7.093 22.541 C 7.153 23.244 7.591 23.526 7.984 23.556 C 8.366 23.571 8.634 23.358 8.701 23.203 C 8.863 22.833 8.181 23.402 7.803 22.83 Z" fill="rgb(0,0,0)"></path><path d="M 24.887 16.449 C 24.672 16.419 24.438 16.42 24.194 16.449 C 24.009 16.215 23.843 15.837 23.749 15.395 C 23.583 14.61 23.6 14.041 24.065 13.967 C 24.529 13.893 24.754 14.368 24.921 15.154 C 25.032 15.682 25.011 16.167 24.887 16.449 Z" fill="rgb(0,0,0)"></path><path d="M 19.797 16.916 C 19.815 17.094 19.822 17.274 19.817 17.439 C 20.266 17.466 20.585 17.68 20.669 17.815 C 20.713 17.885 20.696 17.93 20.681 17.952 C 20.635 18.024 20.535 18.013 20.326 17.989 C 20.144 17.969 19.947 17.951 19.743 17.96 C 19.632 18.301 19.302 18.333 19.071 18.081 C 18.909 18.13 18.591 18.333 18.497 18.113 C 18.496 18.003 18.61 17.844 18.817 17.704 C 18.676 17.434 18.581 17.145 18.525 16.846 C 18.231 16.899 17.967 16.981 17.76 17.046 C 17.663 17.076 17.278 17.25 17.233 17.054 C 17.203 16.919 17.413 16.695 17.636 16.535 C 17.885 16.358 18.161 16.232 18.447 16.16 C 18.441 15.734 18.549 15.437 18.859 15.387 C 19.243 15.326 19.48 15.622 19.645 16.169 C 20.109 16.298 20.572 16.617 20.776 16.948 C 20.856 17.076 20.871 17.175 20.82 17.227 C 20.691 17.36 19.979 16.974 19.797 16.916 Z" fill="rgb(0,0,0)"></path><path d="M 22.847 18.831 C 23.141 18.973 23.464 18.917 23.57 18.705 C 23.676 18.493 23.523 18.206 23.228 18.064 C 22.934 17.921 22.61 17.977 22.505 18.189 C 22.399 18.401 22.552 18.688 22.847 18.831 Z" fill="rgb(0,0,0)"></path><path d="M 24.295 17.779 C 24.3 17.455 24.499 17.196 24.737 17.2 C 24.976 17.204 25.165 17.47 25.16 17.793 C 25.155 18.116 24.956 18.375 24.717 18.371 C 24.479 18.367 24.289 18.102 24.295 17.779 Z" fill="rgb(0,0,0)"></path><path d="M 30.768 21.747 C 30.766 21.74 30.772 21.764 30.768 21.747 C 31.247 21.747 32 22.291 32 23.605 C 32 24.913 31.45 26.394 31.321 26.722 C 29.341 31.406 24.616 34.013 18.987 33.848 C 13.74 33.694 9.265 30.961 7.306 26.505 C 6.122 26.506 4.901 25.992 3.973 25.18 C 2.995 24.325 2.392 23.218 2.274 22.064 C 2.183 21.165 2.294 20.329 2.58 19.6 L 1.48 18.679 C -3.553 14.485 12.189 -2.788 17.224 1.547 C 17.25 1.569 18.937 3.203 18.941 3.207 C 21.369 2.19 27.873 0.253 27.881 4.762 C 27.883 6.26 26.916 8.006 25.367 9.591 C 27.158 11.23 26.686 13.558 26.971 15.694 L 27.592 15.864 C 28.778 16.192 29.621 16.63 30.034 17.057 C 30.446 17.484 30.651 17.898 30.725 18.383 C 30.794 18.775 30.785 19.466 30.262 20.238 C 30.451 20.737 30.622 21.234 30.768 21.747 Z M 7.218 25.29 C 7.393 25.294 7.568 25.283 7.739 25.254 C 9.578 24.944 10.06 22.972 9.757 21.036 C 9.415 18.849 7.916 18.078 6.899 18.024 C 6.616 18.009 6.354 18.034 6.137 18.077 C 4.322 18.438 3.297 19.963 3.499 21.943 C 3.681 23.735 5.517 25.245 7.218 25.29 Z M 3.106 18.614 C 3.715 17.741 4.711 17.109 5.841 16.892 C 7.279 13.081 9.681 9.57 12.859 7.154 C 15.218 5.212 17.762 3.818 17.762 3.818 C 17.762 3.818 16.392 2.25 15.978 2.135 C 13.433 1.456 7.936 5.198 4.425 10.143 C 3.005 12.144 0.972 15.686 1.944 17.509 C 2.064 17.734 2.742 18.315 3.106 18.614 Z M 23.743 24.415 C 23.747 24.456 23.722 24.498 23.685 24.513 C 23.685 24.513 21.64 25.452 18.391 24.46 C 18.508 25.434 19.689 25.803 20.514 25.937 C 24.54 26.621 28.303 24.348 29.15 23.776 C 29.296 23.678 29.149 23.93 29.122 23.967 C 28.085 25.288 25.297 26.817 21.67 26.817 C 20.088 26.816 18.507 26.266 17.926 25.421 C 17.026 24.109 17.881 22.195 19.382 22.394 C 21.92 22.677 24.521 22.464 26.87 21.388 C 28.918 20.45 29.691 19.417 29.575 18.581 C 29.395 17.285 27.473 17.083 26.502 16.767 C 26.079 16.63 25.871 16.519 25.823 15.735 C 25.803 15.392 25.742 14.197 25.72 13.702 C 25.682 12.837 25.576 11.654 24.832 11.165 C 24.639 11.038 24.423 10.977 24.197 10.965 C 24.016 10.956 23.909 10.981 23.851 10.994 C 23.838 10.997 23.828 11 23.819 11.001 C 23.418 11.068 23.172 11.272 22.882 11.511 C 22.865 11.525 22.848 11.539 22.831 11.553 C 21.904 12.316 21.121 12.441 20.25 12.404 C 19.978 12.392 19.699 12.365 19.404 12.337 C 19.132 12.31 18.848 12.283 18.545 12.265 L 18.176 12.244 C 16.717 12.17 15.152 13.413 14.892 15.18 C 14.601 17.151 15.703 18.358 16.42 19.144 C 16.597 19.338 16.751 19.506 16.854 19.654 C 16.92 19.743 16.997 19.868 16.997 19.988 C 16.997 20.13 16.903 20.243 16.812 20.339 C 15.323 21.85 14.847 24.251 15.408 26.251 C 15.478 26.5 15.567 26.739 15.672 26.968 C 16.988 30.003 21.071 31.417 25.058 30.131 C 27.853 29.23 30.322 27.052 30.825 24.049 C 30.945 23.266 30.769 22.964 30.53 22.818 C 30.276 22.664 29.973 22.717 29.973 22.717 C 29.973 22.717 29.834 21.782 29.443 20.932 C 28.28 21.838 26.783 22.474 25.644 22.797 C 23.819 23.313 21.847 23.515 19.961 23.271 C 19.196 23.172 18.681 23.106 18.461 23.812 C 20.977 24.722 23.64 24.332 23.64 24.332 C 23.692 24.327 23.738 24.364 23.743 24.415 Z M 16.484 6.766 C 15.108 7.461 13.571 8.698 12.324 10.122 C 12.28 10.173 12.345 10.243 12.399 10.204 C 13.477 9.43 14.955 8.71 16.891 8.244 C 19.059 7.722 21.146 7.941 22.421 8.23 C 22.486 8.244 22.526 8.135 22.469 8.104 C 21.626 7.637 20.333 7.32 19.416 7.314 C 19.371 7.313 19.346 7.262 19.372 7.226 C 19.531 7.015 19.748 6.808 19.947 6.657 C 19.991 6.623 19.964 6.552 19.908 6.555 C 18.767 6.625 16.16 7.813 16.17 7.77 C 16.237 7.453 16.447 7.035 16.556 6.839 C 16.582 6.793 16.531 6.742 16.484 6.766 Z" fill="rgb(0,0,0)"></path></svg>