<svg xmlns="http://www.w3.org/2000/svg" xmlns:xlink="http://www.w3.org/1999/xlink" viewBox="0 0 48 49"><path d="M 8.574 44.182 L 3.415 37.755 C 2.174 36.208 1.5 34.307 1.5 32.35 L 1.5 9.077 C 1.5 6.146 3.845 3.713 6.871 3.507 L 30.798 1.873 C 32.536 1.755 34.264 2.217 35.692 3.182 L 44.099 8.866 C 45.604 9.883 46.5 11.546 46.5 13.321 L 46.5 39.78 C 46.5 42.649 44.194 45.024 41.231 45.206 L 14.675 46.841 C 12.311 46.986 10.026 45.99 8.574 44.182 Z" fill="rgb(255,255,255)"></path><path d="M 16.872 20.723 L 16.872 20.419 C 16.872 19.646 17.491 19.006 18.288 18.953 L 24.095 18.565 L 32.126 30.39 L 32.126 20.011 L 30.058 19.736 L 30.058 19.591 C 30.058 18.81 30.691 18.165 31.499 18.124 L 36.782 17.853 L 36.782 18.613 C 36.782 18.97 36.517 19.276 36.153 19.337 L 34.882 19.552 L 34.882 36.361 L 33.286 36.91 C 31.953 37.368 30.469 36.877 29.705 35.726 L 21.909 23.961 L 21.909 35.19 L 24.309 35.649 L 24.275 35.871 C 24.171 36.569 23.569 37.096 22.84 37.128 L 16.872 37.394 C 16.793 36.644 17.355 35.974 18.13 35.892 L 18.915 35.81 L 18.915 20.838 Z" fill="rgb(0,0,0)"></path><path d="M 31.012 4.805 L 7.085 6.439 C 5.652 6.537 4.541 7.689 4.541 9.078 L 4.541 32.35 C 4.541 33.655 4.99 34.922 5.818 35.953 L 10.977 42.38 C 11.811 43.419 13.123 43.992 14.482 43.908 L 41.038 42.273 C 42.399 42.19 43.459 41.098 43.459 39.78 L 43.459 13.322 C 43.459 12.506 43.047 11.742 42.355 11.274 L 33.949 5.591 C 33.092 5.011 32.055 4.734 31.012 4.805 Z M 8.272 9.441 C 7.939 9.194 8.097 8.681 8.515 8.651 L 31.173 7.026 C 31.895 6.974 32.613 7.173 33.196 7.587 L 37.742 10.807 C 37.915 10.93 37.834 11.194 37.62 11.205 L 13.626 12.51 C 12.9 12.55 12.183 12.336 11.605 11.909 Z M 12.5 16.601 C 12.5 15.822 13.13 15.178 13.935 15.134 L 39.305 13.752 C 40.089 13.71 40.75 14.313 40.75 15.073 L 40.75 37.983 C 40.75 38.761 40.123 39.404 39.319 39.45 L 14.11 40.884 C 13.237 40.934 12.5 40.263 12.5 39.417 Z" fill="rgb(0,0,0)"></path></svg>