<svg xmlns="http://www.w3.org/2000/svg" xmlns:xlink="http://www.w3.org/1999/xlink" viewBox="0 0 48 49"><path d="M 3 24.355 C 3 12.757 12.402 3.355 24 3.355 C 35.598 3.355 45 12.757 45 24.355 C 45 35.953 35.598 45.355 24 45.355 C 12.402 45.355 3 35.953 3 24.355 Z" fill="rgb(0,0,0)"></path><path d="M 23.168 9.607 C 23.672 9.271 24.328 9.271 24.832 9.607 L 38.332 18.607 C 38.749 18.885 39 19.354 39 19.855 L 39 28.855 C 39 29.356 38.749 29.825 38.332 30.103 L 24.832 39.103 C 24.328 39.439 23.672 39.439 23.168 39.103 L 9.668 30.103 C 9.251 29.825 9 29.356 9 28.855 L 9 19.855 C 9 19.354 9.251 18.885 9.668 18.607 Z M 12 22.658 L 14.546 24.355 L 12 26.052 Z M 13.204 28.855 L 22.5 35.052 L 22.5 29.658 L 17.25 26.158 Z M 19.954 24.355 L 24 27.052 L 28.046 24.355 L 24 21.658 Z M 25.5 19.052 L 30.75 22.552 L 34.796 19.855 L 25.5 13.658 Z M 22.5 13.658 L 22.5 19.052 L 17.25 22.552 L 13.204 19.855 Z M 36 22.658 L 33.454 24.355 L 36 26.052 Z M 34.796 28.855 L 30.75 26.158 L 25.5 29.658 L 25.5 35.052 Z" fill="rgb(255,255,255)"></path></svg>